<svg fill="#000000" xmlns="http://www.w3.org/2000/svg"  viewBox="0 0 64 64" width="128px" height="128px"><path d="M 58.140625 4.164063 C 57.996094 4.15625 57.851563 4.160156 57.707031 4.179688 L 31.707031 8.03125 C 30.734375 8.175781 30 9.027344 30 10.011719 L 30 28 C 30 29.101563 30.898438 30 32 30 L 58 30 C 59.101563 30 60 29.101563 60 28 L 60 6.15625 C 60 5.578125 59.746094 5.023438 59.308594 4.644531 C 58.976563 4.359375 58.566406 4.191406 58.140625 4.164063 Z M 58 6.15625 L 58 28 L 32 28 L 32 15.011719 L 46.75 12.828125 C 47.292969 12.746094 47.671875 12.238281 47.59375 11.6875 C 47.511719 11.144531 47.003906 10.769531 46.453125 10.847656 L 32 12.988281 L 32 10.011719 Z M 26.140625 8.90625 C 25.996094 8.894531 25.851563 8.898438 25.707031 8.921875 L 5.707031 11.886719 C 4.734375 12.03125 4 12.878906 4 13.863281 L 4 28 C 4 29.101563 4.898438 30 6 30 L 26 30 C 27.101563 30 28 29.101563 28 28 L 28 10.902344 C 28 10.320313 27.746094 9.765625 27.308594 9.386719 C 26.976563 9.101563 26.566406 8.933594 26.140625 8.90625 Z M 53.984375 9.730469 L 50.855469 10.195313 C 50.308594 10.277344 49.929688 10.78125 50.011719 11.328125 C 50.082031 11.828125 50.511719 12.1875 51 12.1875 C 51.046875 12.1875 51.097656 12.183594 51.144531 12.171875 L 54.277344 11.710938 C 54.824219 11.628906 55.203125 11.121094 55.121094 10.574219 C 55.039063 10.027344 54.53125 9.652344 53.984375 9.730469 Z M 26 10.902344 L 26 13.878906 L 9.890625 16.265625 C 9.34375 16.34375 8.96875 16.851563 9.046875 17.402344 C 9.121094 17.898438 9.546875 18.253906 10.035156 18.253906 C 10.085938 18.253906 10.132813 18.25 10.183594 18.242188 L 26 15.902344 L 26 28 L 6 28 L 6 13.863281 Z M 6 32 C 4.898438 32 4 32.898438 4 34 L 4 48.136719 C 4 49.121094 4.734375 49.96875 5.707031 50.113281 L 25.707031 53.078125 C 25.804688 53.09375 25.902344 53.097656 26 53.097656 C 26.476563 53.097656 26.941406 52.929688 27.308594 52.613281 C 27.746094 52.234375 28 51.679688 28 51.097656 L 28 34 C 28 32.898438 27.101563 32 26 32 Z M 32 32 C 30.898438 32 30 32.898438 30 34 L 30 51.988281 C 30 52.972656 30.734375 53.824219 31.707031 53.96875 L 57.707031 57.820313 C 57.804688 57.835938 57.902344 57.84375 58 57.84375 C 58.476563 57.84375 58.941406 57.671875 59.308594 57.355469 C 59.746094 56.976563 60 56.421875 60 55.84375 L 60 34 C 60 32.898438 59.101563 32 58 32 Z M 6 34 L 26 34 L 26 36 C 25.449219 36 25 36.449219 25 37 L 25 39 C 25 39.550781 25.449219 40 26 40 L 26 51.097656 L 6 48.136719 L 6 40 C 6.550781 40 7 39.550781 7 39 L 7 37 C 7 36.449219 6.550781 36 6 36 Z M 32 34 L 58 34 L 58 37 C 58 36.449219 57.550781 36 57 36 C 56.449219 36 56 36.449219 56 37 L 56 39 C 56 39.550781 56.449219 40 57 40 C 57.550781 40 58 39.550781 58 39 L 58 55.84375 L 32 51.988281 L 32 40 C 32.550781 40 33 39.550781 33 39 L 33 37 C 33 36.449219 32.550781 36 32 36 Z M 11 36 C 10.449219 36 10 36.449219 10 37 L 10 39 C 10 39.550781 10.449219 40 11 40 C 11.550781 40 12 39.550781 12 39 L 12 37 C 12 36.449219 11.550781 36 11 36 Z M 16 36 C 15.449219 36 15 36.449219 15 37 L 15 39 C 15 39.550781 15.449219 40 16 40 C 16.550781 40 17 39.550781 17 39 L 17 37 C 17 36.449219 16.550781 36 16 36 Z M 21 36 C 20.449219 36 20 36.449219 20 37 L 20 39 C 20 39.550781 20.449219 40 21 40 C 21.550781 40 22 39.550781 22 39 L 22 37 C 22 36.449219 21.550781 36 21 36 Z M 37 36 C 36.449219 36 36 36.449219 36 37 L 36 39 C 36 39.550781 36.449219 40 37 40 C 37.550781 40 38 39.550781 38 39 L 38 37 C 38 36.449219 37.550781 36 37 36 Z M 42 36 C 41.449219 36 41 36.449219 41 37 L 41 39 C 41 39.550781 41.449219 40 42 40 C 42.550781 40 43 39.550781 43 39 L 43 37 C 43 36.449219 42.550781 36 42 36 Z M 47 36 C 46.449219 36 46 36.449219 46 37 L 46 39 C 46 39.550781 46.449219 40 47 40 C 47.550781 40 48 39.550781 48 39 L 48 37 C 48 36.449219 47.550781 36 47 36 Z M 52 36 C 51.449219 36 51 36.449219 51 37 L 51 39 C 51 39.550781 51.449219 40 52 40 C 52.550781 40 53 39.550781 53 39 L 53 37 C 53 36.449219 52.550781 36 52 36 Z"/></svg>